<?xml version="1.0" encoding="UTF-8" ?>
<svg version="1.1" width="32" height="32" xmlns="http://www.w3.org/2000/svg" shape-rendering="crispEdges">
<rect x="12" y="3" width="7" height="1" fill="#000000" />
<rect x="9" y="4" width="3" height="1" fill="#000000" />
<rect x="12" y="4" width="7" height="3" fill="#4C17BF" />
<rect x="19" y="4" width="3" height="1" fill="#000000" />
<rect x="7" y="5" width="2" height="2" fill="#000000" />
<rect x="9" y="5" width="3" height="11" fill="#4C17BF" />
<rect x="19" y="5" width="3" height="3" fill="#4C17BF" />
<rect x="22" y="5" width="2" height="2" fill="#000000" />
<rect x="5" y="7" width="2" height="2" fill="#000000" />
<rect x="7" y="7" width="2" height="5" fill="#4C17BF" />
<rect x="12" y="7" width="5" height="12" fill="#4C17BF" />
<rect x="17" y="7" width="2" height="1" fill="#FFFFFF" />
<rect x="22" y="7" width="2" height="4" fill="#4C17BF" />
<rect x="24" y="7" width="2" height="2" fill="#000000" />
<rect x="17" y="8" width="1" height="14" fill="#4C17BF" />
<rect x="18" y="8" width="2" height="1" fill="#FFFFFF" />
<rect x="20" y="8" width="2" height="1" fill="#4C17BF" />
<rect x="4" y="9" width="1" height="3" fill="#000000" />
<rect x="5" y="9" width="2" height="6" fill="#320F7D" />
<rect x="18" y="9" width="1" height="13" fill="#4C17BF" />
<rect x="19" y="9" width="2" height="1" fill="#FFFFFF" />
<rect x="21" y="9" width="1" height="1" fill="#4C17BF" />
<rect x="24" y="9" width="2" height="13" fill="#4C17BF" />
<rect x="26" y="9" width="1" height="3" fill="#000000" />
<rect x="19" y="10" width="1" height="12" fill="#4C17BF" />
<rect x="20" y="10" width="2" height="1" fill="#FFFFFF" />
<rect x="20" y="11" width="1" height="12" fill="#4C17BF" />
<rect x="21" y="11" width="2" height="1" fill="#FFFFFF" />
<rect x="23" y="11" width="1" height="3" fill="#4C17BF" />
<rect x="3" y="12" width="1" height="7" fill="#000000" />
<rect x="4" y="12" width="1" height="7" fill="#1E094D" />
<rect x="7" y="12" width="1" height="6" fill="#320F7D" />
<rect x="8" y="12" width="1" height="3" fill="#4C17BF" />
<rect x="21" y="12" width="1" height="11" fill="#4C17BF" />
<rect x="22" y="12" width="1" height="1" fill="#FFFFFF" />
<rect x="26" y="12" width="1" height="7" fill="#4C17BF" />
<rect x="27" y="12" width="1" height="7" fill="#000000" />
<rect x="22" y="13" width="1" height="10" fill="#4C17BF" />
<rect x="23" y="14" width="1" height="2" fill="#FFFFFF" />
<rect x="5" y="15" width="2" height="7" fill="#1E094D" />
<rect x="8" y="15" width="1" height="4" fill="#320F7D" />
<rect x="9" y="16" width="2" height="4" fill="#320F7D" />
<rect x="11" y="16" width="1" height="2" fill="#4C17BF" />
<rect x="23" y="16" width="1" height="7" fill="#4C17BF" />
<rect x="7" y="18" width="1" height="6" fill="#1E094D" />
<rect x="11" y="18" width="1" height="4" fill="#320F7D" />
<rect x="4" y="19" width="1" height="3" fill="#000000" />
<rect x="8" y="19" width="1" height="5" fill="#1E094D" />
<rect x="12" y="19" width="1" height="4" fill="#320F7D" />
<rect x="13" y="19" width="4" height="1" fill="#4C17BF" />
<rect x="26" y="19" width="1" height="3" fill="#000000" />
<rect x="9" y="20" width="2" height="6" fill="#1E094D" />
<rect x="13" y="20" width="3" height="3" fill="#320F7D" />
<rect x="16" y="20" width="1" height="2" fill="#4C17BF" />
<rect x="5" y="22" width="2" height="2" fill="#000000" />
<rect x="11" y="22" width="1" height="4" fill="#1E094D" />
<rect x="16" y="22" width="4" height="2" fill="#320F7D" />
<rect x="24" y="22" width="2" height="2" fill="#000000" />
<rect x="12" y="23" width="3" height="4" fill="#1E094D" />
<rect x="15" y="23" width="1" height="1" fill="#320F7D" />
<rect x="20" y="23" width="4" height="1" fill="#320F7D" />
<rect x="7" y="24" width="2" height="2" fill="#000000" />
<rect x="15" y="24" width="4" height="3" fill="#1E094D" />
<rect x="19" y="24" width="3" height="2" fill="#320F7D" />
<rect x="22" y="24" width="2" height="2" fill="#000000" />
<rect x="9" y="26" width="3" height="1" fill="#000000" />
<rect x="19" y="26" width="3" height="1" fill="#000000" />
<rect x="12" y="27" width="7" height="1" fill="#000000" />
</svg>